<svg data-v-0dd9719b="" version="1.0" xmlns="http://www.w3.org/2000/svg" xmlns:xlink="http://www.w3.org/1999/xlink" width="100%" height="100%" viewBox="0 0 340.000000 250.000000" preserveAspectRatio="xMidYMid meet" color-interpolation-filters="sRGB" style="margin: auto;">  <g data-v-0dd9719b="" fill="#333" class="iconlinesvg-g iconlinesvg" transform="translate(79.65269470216212,107.2685718536377)"><g class="tp-name"><g transform="translate(0, 2.219400040408159)"><g><g class="imagesvg"><g><rect fill="#333" fill-opacity="0" stroke-width="2" x="0" y="0" width="26.518204034202796" height="31.02342595077423" class="image-rect"></rect> <svg x="0" y="0" width="26.518204034202796" height="31.02342595077423" filtersec="colorsb4929738228" class="image-svg-svg primary" style="overflow: visible;"><svg xmlns="http://www.w3.org/2000/svg" viewBox="0.0006557262386195362 -0.0012202734360471368 112.77934265136719 131.93943786621094"><title>资源 12</title><path d="M19.19 112.45a66.25 66.25 0 0 1 0-93.26L66 66z" fill="#FFA500"></path><path d="M66 0a65.73 65.73 0 0 1 46.78 19.19L66 66 19.19 19.19A65.71 65.71 0 0 1 66 0z" fill="#f3ce00"></path><path d="M112.75 112.45a65.89 65.89 0 0 1-93.56 0L66 66z" fill="#4195d2"></path></svg></svg> <!----></g></g></g></g><g transform="translate(30, 0)"><g data-gra="path-name" fill="#FFA500" transform="scale(1)"><path d="M18.05 0L9.52 0L0-24.97L8.99-24.97L13.22-10.20Q13.25-10.09 13.31-9.83Q13.38-9.57 13.44-9.20Q13.51-8.84 13.57-8.43Q13.62-8.02 13.62-7.67L13.62-7.67L13.77-7.67Q13.77-8.82 14.17-10.16L14.17-10.16L18.60-24.97L27.57-24.97L18.05 0Z" transform="translate(0, 35.0214276968287)"></path></g></g><g transform="translate(61, 0)"><g data-gra="path-name" fill="#FFA500" transform="scale(1)"><path d="M15.21-6.37L15.21-6.37Q16.95-6.37 19.37-7.23L19.37-7.23L19.37-0.95Q17.63-0.20 16.06 0.12Q14.48 0.44 12.36 0.44L12.36 0.44Q8.02 0.44 6.11-1.69Q4.19-3.81 4.19-8.22L4.19-8.22L4.19-18.51L1.17-18.51L1.17-22.02L5.00-24.73L7.23-29.97L12.87-29.97L12.87-24.97L19.00-24.97L19.00-18.51L12.87-18.51L12.87-8.79Q12.87-6.37 15.21-6.37Z" transform="translate(-1.168115587118893, 35.0214276968287)"></path></g></g><g transform="translate(83, 0)"><g data-gra="path-name" fill="#FFA500" transform="scale(1)"><path d="M25.24 0L19.26 0L17.61-3.31L17.43-3.31Q15.69-1.15 13.89-0.35Q12.08 0.44 9.21 0.44L9.21 0.44Q5.69 0.44 3.66-1.68Q1.63-3.79 1.63-7.63L1.63-7.63Q1.63-11.62 4.41-13.57Q7.19-15.52 12.45-15.76L12.45-15.76L16.62-15.89L16.62-16.24Q16.62-19.33 13.58-19.33L13.58-19.33Q10.84-19.33 6.63-17.48L6.63-17.48L4.14-23.16Q8.51-25.41 15.16-25.41L15.16-25.41Q19.97-25.41 22.60-23.03Q25.24-20.65 25.24-16.38L25.24-16.38L25.24 0ZM12.87-5.64L12.87-5.64Q14.44-5.64 15.55-6.63Q16.66-7.63 16.66-9.21L16.66-9.21L16.66-11.15L14.68-11.06Q10.42-10.91 10.42-7.93L10.42-7.93Q10.42-5.64 12.87-5.64Z" transform="translate(-1.6309538386188318, 35.0214276968287)"></path></g></g><g transform="translate(110, 0)"><g data-gra="path-name" fill="#FFA500" transform="scale(1)"><path d="M11.64-24.97L11.64 0L3.02 0L3.02-24.97L11.64-24.97ZM2.80-31.19L2.80-31.19Q2.80-33.13 3.88-34.07Q4.96-35.02 7.36-35.02L7.36-35.02Q9.76-35.02 10.87-34.05Q11.97-33.08 11.97-31.19L11.97-31.19Q11.97-27.40 7.36-27.40L7.36-27.40Q2.80-27.40 2.80-31.19Z" transform="translate(-2.799069425737725, 35.0214276968287)"></path></g></g><g transform="translate(123, 0)"><g data-gra="path-name" fill="#FFA500" transform="scale(1)"><path d="M11.59-34.29L11.59 0L2.98 0L2.98-34.29L11.59-34.29Z" transform="translate(-2.9753887596424637, 35.0214276968287)"></path></g></g><g transform="translate(135, 0)"><g data-gra="path-name" fill="#FFA500" transform="scale(1)"><path d="M26.82-12.54L26.82-12.54Q26.82-6.41 23.53-2.99Q20.23 0.44 14.30 0.44L14.30 0.44Q8.62 0.44 5.26-3.06Q1.90-6.57 1.90-12.54L1.90-12.54Q1.90-18.65 5.19-22.03Q8.49-25.41 14.44-25.41L14.44-25.41Q18.12-25.41 20.94-23.85Q23.76-22.28 25.29-19.36Q26.82-16.44 26.82-12.54ZM10.65-12.54L10.65-12.54Q10.65-9.32 11.50-7.64Q12.36-5.95 14.39-5.95L14.39-5.95Q16.40-5.95 17.22-7.64Q18.05-9.32 18.05-12.54L18.05-12.54Q18.05-15.74 17.21-17.37Q16.38-19.00 14.35-19.00L14.35-19.00Q12.36-19.00 11.50-17.38Q10.65-15.76 10.65-12.54Z" transform="translate(-1.8954328394759399, 35.0214276968287)"></path></g></g><g transform="translate(163, 0)"><g data-gra="path-name" fill="#FFA500" transform="scale(1)"><path d="M18.05-25.41L18.05-25.41Q19.17-25.41 20.19-25.24L20.19-25.24L20.67-25.15L19.90-17.01Q18.84-17.28 16.97-17.28L16.97-17.28Q14.15-17.28 12.87-15.99Q11.59-14.70 11.59-12.28L11.59-12.28L11.59 0L2.98 0L2.98-24.97L9.39-24.97L10.73-20.98L11.15-20.98Q12.23-22.97 14.16-24.19Q16.09-25.41 18.05-25.41Z" transform="translate(-2.9753887596424637, 35.0214276968287)"></path></g></g></g> <!----></g><defs v-gra="od"></defs></svg>